<?xml version="1.0" encoding="UTF-8"?>
<svg width="32px" height="32px" viewBox="0 0 32 32" version="1.1" xmlns="http://www.w3.org/2000/svg" xmlns:xlink="http://www.w3.org/1999/xlink">
    <!-- Generator: Sketch 45.2 (43514) - http://www.bohemiancoding.com/sketch -->
    <title>logo-github</title>
    <desc>Created with Sketch.</desc>
    <defs></defs>
    <g id="Page-1" stroke="none" stroke-width="1" fill="none" fill-rule="evenodd">
        <path d="M29.8537075,8.16854841 C28.4229431,5.65563221 26.4822026,3.66615295 24.0309751,2.19966185 C21.5793828,0.733095954 18.9029748,0 16.0165638,0 C13.0970981,0 10.4198146,0.733320348 7.96873304,2.19966185 C5.51728667,3.66607815 3.5766191,5.65563221 2.14585471,8.16854841 C0.715309226,10.6813898 0,13.4254321 0,16.4006004 C0,19.9744525 1.0171795,23.1881519 3.05204927,26.0425213 C5.08670014,28.8971151 7.71516785,30.8723827 10.9372335,31.9685486 C11.3122911,32.0399059 11.5899358,31.9897164 11.7704597,31.8192516 C11.9510564,31.6485624 12.0412454,31.4347895 12.0412454,31.1788305 C12.0412454,31.1361208 12.0376699,30.751883 12.0307379,30.0256685 C12.023587,29.299454 12.0202305,28.6659143 12.0202305,28.1253486 L11.541047,28.2103192 C11.2355283,28.2676893 10.8501092,28.2919987 10.3847897,28.2851173 C9.91968915,28.2784602 9.43685725,28.2284951 8.93695074,28.1355959 C8.43682533,28.0435195 7.97165178,27.829971 7.54106525,27.4953992 C7.11069762,27.1608274 6.80517893,26.7228846 6.62458214,26.1822441 L6.41625736,25.6908208 C6.27739849,25.363654 6.05878517,25.0002101 5.76012551,24.6018355 C5.46146584,24.203087 5.15944964,23.9327667 4.85393094,23.790426 L4.70806711,23.68339 C4.6108732,23.612257 4.52068426,23.5264636 4.43728138,23.4269074 C4.35395147,23.3273511 4.29156348,23.2277201 4.24989853,23.1279394 C4.2081606,23.028084 4.24274763,22.9461801 4.35402444,22.8819286 C4.46530125,22.817677 4.66640216,22.7864862 4.95820279,22.7864862 L5.37470642,22.850289 C5.65249712,22.9073599 5.99610531,23.0778247 6.40596882,23.3627306 C6.81561341,23.6474121 7.15236258,24.017513 7.41628928,24.4728837 C7.73589088,25.0567575 8.12094512,25.5016564 8.57254655,25.8078049 C9.02378314,26.1139535 9.47874111,26.2667659 9.93698267,26.2667659 C10.3952242,26.2667659 10.7910048,26.2311621 11.1244704,26.1603283 C11.4575712,26.0891205 11.7700948,25.9820845 12.0618954,25.8398185 C12.1868903,24.8855447 12.5272149,24.1524487 13.0825774,23.6400071 C12.2910162,23.5547373 11.5793554,23.426309 10.9472302,23.255545 C10.3154698,23.0845566 9.66262148,22.8070557 8.98912315,22.4222944 C8.31525997,22.0380567 7.75624906,21.5609197 7.31194447,20.9917064 C6.86756691,20.4221938 6.50287085,19.6745122 6.21836706,18.7493348 C5.93371733,17.8237834 5.79135598,16.7561156 5.79135598,15.5460323 C5.79135598,13.8230586 6.34007835,12.3568667 7.43730418,11.1466338 C6.92331477,9.85128075 6.97183876,8.39915088 7.58302208,6.79039384 C7.98580765,6.66211513 8.58312697,6.75838026 9.37468817,7.07859083 C10.1663953,7.39895099 10.7460563,7.67338514 11.1142548,7.90092089 C11.4824534,8.12838184 11.7774646,8.32113648 11.9997264,8.47746447 C13.2916319,8.10743838 14.6248375,7.92238793 15.9997081,7.92238793 C17.3745787,7.92238793 18.7080762,8.10743838 20.0000547,8.47746447 L20.7916889,7.96517244 C21.3330415,7.62334522 21.9723176,7.31009088 22.707985,7.0253346 C23.4440902,6.74072791 24.0069685,6.66233953 24.396036,6.79061823 C25.0207914,8.39945007 25.0764663,9.85150514 24.562331,11.1468582 C25.6594838,12.3570911 26.2084251,13.823657 26.2084251,15.5462567 C26.2084251,16.75634 26.065553,17.8273737 25.7813411,18.7600309 C25.4967643,19.6928377 25.1289306,20.4397713 24.677694,21.0024025 C24.2259467,21.5649588 23.6633603,22.0383558 22.989862,22.4225188 C22.3162177,22.8069809 21.6631505,23.0844818 21.0313901,23.2554702 C20.3993378,23.4264586 19.687677,23.5549617 18.8961158,23.6403811 C19.6180652,24.2808022 19.9791128,25.2916982 19.9791128,26.6726203 L19.9791128,31.1782321 C19.9791128,31.4341911 20.0659452,31.6478892 20.2397559,31.8186532 C20.4133477,31.989118 20.68749,32.0393075 21.0625476,31.9678754 C24.2850511,30.8718592 26.9135188,28.8965167 28.9480967,26.0419229 C30.9824557,23.1875535 32,19.9738541 32,16.400002 C31.9992703,13.4252077 31.2835962,10.6813898 29.8537075,8.16854841 Z" id="logo-github" fill="#000000" fill-rule="nonzero"></path>
    </g>
</svg>